<svg xmlns="http://www.w3.org/2000/svg" width="848.711" height="668.115" viewBox="0 0 848.711 668.115">
  <g id="girl" transform="translate(-76.387 -39.5)">
    <g id="background" transform="translate(76.387 63.862)">
      <g id="Сгруппировать_8" data-name="Сгруппировать 8" transform="translate(0 511.981)">
        <g id="Сгруппировать_7" data-name="Сгруппировать 7">
          <path id="Контур_7" data-name="Контур 7" d="M77.806,930.126c42.626-19.013,91.017-16.56,135.728-7.115,47.287,10,92.8,27.416,140.512,35.511,26.434,4.477,53.42,6.072,80.039,1.9,1.165-.184.675-1.963-.491-1.779-49.434,7.667-98.868-4.6-146.155-17.97-45.263-12.818-91.078-27.047-138.672-26.68-24.656.184-49.25,4.477-71.881,14.536-1.1.491-.184,2.085.92,1.595Z" transform="translate(-76.387 -913.989)" fill="#e8e8e8"/>
        </g>
      </g>
      <g id="Сгруппировать_10" data-name="Сгруппировать 10" transform="translate(239.211 511.68)">
        <g id="Сгруппировать_9" data-name="Сгруппировать 9">
          <path id="Контур_8" data-name="Контур 8" d="M467.325,945.76c57.775,1.165,113.71-14.842,170.2-24.349,16.5-2.76,33.119-4.968,49.863-6.072,1.165-.061,1.165-1.9,0-1.84-57.836,3.8-113.587,21.1-170.994,27.845a363.459,363.459,0,0,1-49,2.637.891.891,0,1,0-.061,1.779Z" transform="translate(-466.412 -913.497)" fill="#e8e8e8"/>
        </g>
      </g>
      <g id="Сгруппировать_12" data-name="Сгруппировать 12" transform="translate(509.025 517.61)">
        <g id="Сгруппировать_11" data-name="Сгруппировать 11">
          <path id="Контур_9" data-name="Контур 9" d="M907.479,928.891a173.376,173.376,0,0,1,62.62-1.963c19.136,2.944,37.474,9.261,55.567,16.008,17.848,6.624,35.573,13.677,54.095,18.4,19.136,4.845,38.578,6.072,58.327,6.072,23.306,0,46.8-.92,69.673,4.232,1.165.245,1.656-1.533.491-1.779-40.418-9.077-82.308.123-122.726-9.077-37.719-8.586-72.188-27.906-110.337-34.837a175.713,175.713,0,0,0-68.14,1.165c-1.227.245-.736,2.024.429,1.779Z" transform="translate(-906.335 -923.165)" fill="#e8e8e8"/>
        </g>
      </g>
      <g id="Сгруппировать_14" data-name="Сгруппировать 14" transform="translate(160.927 253.636)">
        <g id="Сгруппировать_13" data-name="Сгруппировать 13">
          <path id="Контур_10" data-name="Контур 10" d="M353.019,526.643c-5.275-1.595-15.64-5.949-11.776-13.309,2.76-5.275,10.978-5.7,16.069-5.52,17.173.491,34.346,1.963,51.519.552,16.13-1.349,31.525-5.949,47.226-9.629,15.946-3.8,32.813-6.563,48.882-1.9,7.053,2.024,13.616,5.4,20.546,7.728a48.634,48.634,0,0,0,10.243,2.331c4.171.429,8.341-.184,12.45-.368,4.232-.184,8.586-.061,12.205,2.453,3.312,2.269,6.072,6.563,3.925,10.549-3.067,5.765-12.021,4.171-17.173,3.067a135.909,135.909,0,0,0-46.183-2.085,140.431,140.431,0,0,0-24.1,5.643c-8.464,2.7-16.682,5.091-25.7,3.864-8.4-1.165-16.437-3.864-24.962-4.171-8.525-.368-16.989.736-25.392,1.84-16.314,2.208-33.733,5.029-49-2.883-1.043-.552-1.963,1.043-.92,1.595,14.29,7.421,30.421,5.7,45.876,3.68a217.53,217.53,0,0,1,24.472-2.453c9.016-.184,17.418,1.9,26.189,3.619,8.954,1.717,17.05.8,25.76-1.9,8.648-2.7,17.173-5.336,26.128-6.685a125.567,125.567,0,0,1,27.967-1.1c8.28.552,16.192,2.76,24.349,3.68,4.845.552,11.04.368,14.045-4.171,3.435-5.213-.245-11.285-4.968-14.168-7.176-4.355-16.069-1.288-23.858-1.779-8.586-.552-16.5-4.539-24.41-7.605-16.437-6.379-33.242-5.581-50.231-1.963-17.97,3.8-35.45,9.629-53.85,11.1a264.536,264.536,0,0,1-31.954.245l-16.621-.736a43.476,43.476,0,0,0-10.181.491c-5.213,1.043-11.162,4.109-10.794,10.3.429,6.808,8.28,9.936,13.8,11.592,1.043.245,1.533-1.533.429-1.9Z" transform="translate(-338.773 -492.767)" fill="#e8e8e8"/>
        </g>
      </g>
      <g id="Сгруппировать_16" data-name="Сгруппировать 16" transform="translate(610.325 28.659)">
        <g id="Сгруппировать_15" data-name="Сгруппировать 15">
          <path id="Контур_11" data-name="Контур 11" d="M1088.98,158.548c-5.275-.736-13.922-2.637-15.456-8.648-2.208-8.341,9.691-10.978,15.456-12.021,16.866-2.883,34.162-.245,51.151-.245,33.671-.061,66.852-6.44,100.339-8.832,16.744-1.227,33.61-1.411,50.292.736a72.3,72.3,0,0,1,11.469,1.963,10.839,10.839,0,0,1,4.416,2.269c2.821,2.76.061,5.275-2.515,6.624-6.624,3.5-14.168,4.907-21.589,5.213-14.842.675-29.624-2.392-44.466-1.84a65.7,65.7,0,0,0-20.3,3.8c-7.667,2.821-14.781,6.808-22.509,9.445a86.166,86.166,0,0,1-27.906,4.6c-9.629,0-19.136-1.472-28.642-2.576a233.475,233.475,0,0,0-57.775.429c-1.165.184-1.165,2.024,0,1.84a230.047,230.047,0,0,1,56.61-.552c9.323,1.043,18.645,2.515,28.09,2.7a87.976,87.976,0,0,0,25.882-3.312c8.587-2.453,16.437-6.685,24.717-10a66.647,66.647,0,0,1,24.9-4.6c15.824-.123,31.709,3.435,47.532,1.349a51.284,51.284,0,0,0,11.285-2.7c2.821-1.043,6.624-2.331,8.648-4.723,3.8-4.6-1.717-8.648-5.827-9.813-8.1-2.392-17.234-2.821-25.637-3.312a255.491,255.491,0,0,0-27.416-.061c-36.983,1.779-73.537,9.507-110.643,9.384-10.549,0-21.1-.981-31.647-1.043-8.955-.061-19.2.123-27.6,3.619-5.275,2.208-10.426,7.36-7.482,13.432,2.76,5.7,10.549,7.667,16.192,8.464,1.1.368,1.594-1.411.429-1.595Z" transform="translate(-1071.5 -125.95)" fill="#e8e8e8"/>
        </g>
      </g>
      <g id="Сгруппировать_18" data-name="Сгруппировать 18" transform="translate(33.282 133.523)">
        <g id="Сгруппировать_17" data-name="Сгруппировать 17">
          <path id="Контур_12" data-name="Контур 12" d="M132.031,308.379c51.151-22.2,107.209-1.472,154.373,20.792,24.042,11.346,47.716,23.49,72.8,32.445a376.338,376.338,0,0,0,76.113,18.338c52.071,7.053,105.369,3.925,156.581-7.544,53.666-12.021,104.51-33.855,157.747-47.532a416,416,0,0,1,169.768-8.157c6.869,1.1,13.677,2.392,20.485,3.864,1.165.245,1.656-1.533.491-1.779a414.964,414.964,0,0,0-166.762-1.288C718.674,328.435,666.971,350.76,613.06,365.3c-52.316,14.106-106.963,19.81-161,14.72a383.631,383.631,0,0,1-79.241-15.824c-26.618-8.341-51.58-20.485-76.665-32.506-45.325-21.773-96.476-43.853-147.749-30.911a108.7,108.7,0,0,0-17.3,5.949c-1.043.552-.123,2.147.92,1.656Z" transform="translate(-130.652 -296.926)" fill="#e8e8e8"/>
        </g>
      </g>
      <g id="Сгруппировать_20" data-name="Сгруппировать 20" transform="translate(244.12 98.802)">
        <g id="Сгруппировать_19" data-name="Сгруппировать 19">
          <path id="Контур_13" data-name="Контур 13" d="M474.836,264.532c59.922,33.426,131.251,35.941,197.735,26.618C747.825,280.6,820.32,255.762,895.7,246.071c41.951-5.4,84.761-6.072,126.283,3.128,1.165.245,1.656-1.533.491-1.779-73.415-16.192-148.731-1.9-220.612,14.842-70.839,16.5-142.475,35.757-215.89,31.034-38.333-2.453-76.481-11.592-110.214-30.359-.981-.613-1.9.981-.92,1.595Z" transform="translate(-474.416 -240.315)" fill="#e8e8e8"/>
        </g>
      </g>
      <g id="Сгруппировать_22" data-name="Сгруппировать 22" transform="translate(64.476)">
        <g id="Сгруппировать_21" data-name="Сгруппировать 21">
          <path id="Контур_14" data-name="Контур 14" d="M182.671,87.734a246.974,246.974,0,0,1,155.048,13.738c23.858,10.365,46.245,23.858,69.673,35.082a248.044,248.044,0,0,0,74.273,22.57c29.746,3.987,59.86,3.312,89.668,1.349,1.165-.061,1.165-1.9,0-1.84-26.925,1.779-54.1,2.515-80.959-.307A246.869,246.869,0,0,1,412.3,136.861c-23.613-10.978-45.938-24.472-69.673-35.143a245.524,245.524,0,0,0-73.476-20.73,248.439,248.439,0,0,0-86.969,4.968c-1.165.245-.675,2.024.491,1.779Z" transform="translate(-181.514 -79.222)" fill="#e8e8e8"/>
        </g>
      </g>
      <g id="Сгруппировать_24" data-name="Сгруппировать 24" transform="translate(571.796 351.134)">
        <g id="Сгруппировать_23" data-name="Сгруппировать 23">
          <path id="Контур_15" data-name="Контур 15" d="M1025.068,680.845c-5.4-1.1-14.229-3.864-14.658-10.549-.245-4.109,3.189-7.115,6.808-8.219,4.354-1.411,8.954-.123,13.186,1.1,7.728,2.269,15.517,4.109,23.613,4.416a74.335,74.335,0,0,0,22.325-2.76c7.851-2.085,15.517-4.907,23.306-7.115a97.082,97.082,0,0,1,25.208-3.68c16.376-.245,32.567,2.7,48.882,3.373a127.909,127.909,0,0,0,24.226-1.349c8.709-1.349,17.6-3.373,26.5-2.331,6.379.736,16.621,5.029,14.536,13.248-1.84,7.176-12.021,11.224-18.277,13.248-31.4,10.181-63.786-6.747-95.617-2.269-18.338,2.576-35.634,10.3-54.156,11.776-8.464.675-17.173.123-25.208-2.883-7.36-2.821-13.984-8.954-22.386-7.483-1.165.184-.675,1.963.491,1.779,5.029-.859,9.445,1.533,13.677,3.864a56.313,56.313,0,0,0,10.611,4.661c7.667,2.331,15.885,2.637,23.858,1.9,17.541-1.656,34.039-8.586,51.4-11.408,19.136-3.067,37.965,1.349,56.855,3.864,15.394,2.024,31.893,2.515,46.367-3.925,5.52-2.453,12.88-6.379,14.29-12.88,1.288-5.827-3.189-10.488-8.034-12.88-7.176-3.5-15.824-2.821-23.429-1.779-9.261,1.227-18.277,3.189-27.661,3.312-18.277.307-36.309-3.435-54.524-3.5a101.99,101.99,0,0,0-25.821,3.189c-8.4,2.208-16.56,5.275-24.9,7.544a74.575,74.575,0,0,1-31.218,1.963,130.207,130.207,0,0,1-15.333-3.8c-3.8-1.1-7.912-2.024-11.9-1.165-5.949,1.288-11.347,6.93-8.709,13.248,2.392,5.765,9.691,8.28,15.333,9.445.981.061,1.472-1.717.368-1.963Z" transform="translate(-1008.68 -651.732)" fill="#e8e8e8"/>
        </g>
      </g>
      <g id="Сгруппировать_26" data-name="Сгруппировать 26" transform="translate(311.829 581.216)">
        <g id="Сгруппировать_25" data-name="Сгруппировать 25">
          <path id="Контур_16" data-name="Контур 16" d="M585.971,1068.1a409.786,409.786,0,0,0,67.036-22.448c11.224-4.907,22.2-10.488,34.162-13.432a130.531,130.531,0,0,1,35.2-3.435c13.677.307,27.232,2.147,40.725,4.293,1.165.184,1.656-1.595.491-1.779-23-3.619-46.674-6.563-69.8-2.392-11.9,2.147-22.816,6.685-33.733,11.653-11.469,5.213-23.061,9.936-34.959,14.106a401.9,401.9,0,0,1-39.621,11.653c-1.165.245-.675,2.024.491,1.779Z" transform="translate(-584.814 -1026.873)" fill="#161616"/>
        </g>
      </g>
      <g id="Сгруппировать_28" data-name="Сгруппировать 28" transform="translate(457.048 571.353)">
        <g id="Сгруппировать_27" data-name="Сгруппировать 27">
          <path id="Контур_17" data-name="Контур 17" d="M822.454,1023.248a119,119,0,0,0,30.421-4.6c10.12-2.883,20.117-6.931,30.85-5.888,5.459.491,10.794,2.024,16.069,3.373,5.52,1.411,10.978,2.821,16.5,4.232,10.61,2.7,21.16,5.4,31.77,8.1a.923.923,0,0,0,.491-1.779c-10.979-2.821-21.957-5.581-32.935-8.4-10.059-2.576-20.362-6.01-30.666-7.237-10.12-1.165-19.688,1.963-29.255,4.907a124.835,124.835,0,0,1-33.181,5.52.89.89,0,1,0-.061,1.779Z" transform="translate(-821.587 -1010.793)" fill="#161616"/>
        </g>
      </g>
      <g id="Сгруппировать_30" data-name="Сгруппировать 30" transform="translate(564.136 584.75)">
        <g id="Сгруппировать_29" data-name="Сгруппировать 29">
          <path id="Контур_18" data-name="Контур 18" d="M997.362,1041.2c24.1-5.336,49.434-9.936,73.905-4.293,12.144,2.821,23.552,8.219,34.9,13.186,11.9,5.275,23.858,10.488,35.757,15.762,1.1.491,2.024-1.1.92-1.595-18.645-8.219-37.106-17.112-56.119-24.41-18.4-7.053-37.535-8.464-57.039-6.256a315.4,315.4,0,0,0-32.874,5.888c-1.1.184-.613,1.963.552,1.717Z" transform="translate(-996.191 -1032.636)" fill="#161616"/>
        </g>
      </g>
      <g id="Сгруппировать_32" data-name="Сгруппировать 32" transform="translate(346.237 635.223)">
        <g id="Сгруппировать_31" data-name="Сгруппировать 31">
          <path id="Контур_19" data-name="Контур 19" d="M642.071,1123.437c6.317-1.1,12.7-2.208,19.013-3.312s12.7-2.515,19.074-3.189c5.888-.613,11.9.429,17.725.981,6.44.675,12.941,1.288,19.381,1.963,1.165.123,1.165-1.717,0-1.84-6.44-.675-12.941-1.288-19.381-1.963-6.256-.613-12.573-1.656-18.89-.859-12.512,1.533-24.962,4.293-37.413,6.44-1.165.245-.675,2.024.491,1.779Z" transform="translate(-640.914 -1114.929)" fill="#161616"/>
        </g>
      </g>
    </g>
    <g id="details" transform="translate(185.175 39.5)">
      <circle id="Эллипс_4" data-name="Эллипс 4" cx="7.605" cy="7.605" r="7.605" transform="translate(61.601 376.273)" fill="#ec615b"/>
      <circle id="Эллипс_5" data-name="Эллипс 5" cx="3.987" cy="3.987" r="3.987" transform="translate(85.766 400.193)" fill="#ec615b"/>
      <circle id="Эллипс_6" data-name="Эллипс 6" cx="9.384" cy="9.384" r="9.384" transform="translate(508.099)" fill="#ec615b"/>
      <circle id="Эллипс_7" data-name="Эллипс 7" cx="5.336" cy="5.336" r="5.336" transform="translate(533.982 18.706)" fill="#ec615b"/>
      <circle id="Эллипс_8" data-name="Эллипс 8" cx="8.893" cy="8.893" r="8.893" transform="translate(526.867 9.384)" fill="#5222d0"/>
      <circle id="Эллипс_9" data-name="Эллипс 9" cx="12.021" cy="12.021" r="12.021" transform="translate(502.457 460.789)" fill="#5222d0"/>
      <circle id="Эллипс_10" data-name="Эллипс 10" cx="7.667" cy="7.667" r="7.667" transform="translate(70.371 9.384)" fill="#5222d0"/>
      <circle id="Эллипс_11" data-name="Эллипс 11" cx="9.384" cy="9.384" r="9.384" transform="translate(189.969 530.217)" fill="#5222d0"/>
      <g id="Сгруппировать_34" data-name="Сгруппировать 34" transform="translate(264.671 348.172)">
        <g id="Сгруппировать_33" data-name="Сгруппировать 33">
          <path id="Контур_20" data-name="Контур 20" d="M687.692,631.48c-1.288-.552.184-2.821.859-3.128.8-.368,2.392.123,3.251.368,1.349.429,2.515,1.165,3.864,1.533a6.764,6.764,0,0,0,4.661-.123c4.907-2.515-.92-10.978,6.256-10.978,3.925,0,7.237,5.827,10.488,1.472a17.962,17.962,0,0,0,2.269-5.336,12.144,12.144,0,0,1,2.024-4.539c1.288-1.472,5.213-2.944,5.643.245.123,1.165,2.024,1.165,1.84,0a4.245,4.245,0,0,0-4.171-3.8c-2.7-.184-4.661,1.84-5.765,4.048a33.167,33.167,0,0,0-1.717,4.907c-.368,1.165-.859,3.189-1.9,3.925-1.1.736-1.963-.061-2.883-.613-2.392-1.595-5.275-2.821-8.157-1.779-2.637.981-3.68,3.251-3.557,5.949,0,.8.245,1.779.184,2.576-.429,2.821-2.331,2.944-4.293,2.515s-3.619-1.656-5.643-2.024c-2.147-.429-4.293.123-5.275,2.269-.8,1.84-.307,3.68,1.533,4.416,1.1.307,1.595-1.472.491-1.9Z" transform="translate(-685.299 -607.181)" fill="#5222d0"/>
        </g>
      </g>
      <g id="Сгруппировать_36" data-name="Сгруппировать 36" transform="translate(296.243 349.535)">
        <g id="Сгруппировать_35" data-name="Сгруппировать 35">
          <path id="Контур_21" data-name="Контур 21" d="M739.244,635.284a4.067,4.067,0,0,1,.061-4.6c1.411-2.024,3.373-1.717,5.52-1.411,1.595.245,3.557.552,4.723-.859.8-.92.675-2.024.981-3.067a7.066,7.066,0,0,1,2.7-3.8,7.732,7.732,0,0,1,9.2-.184.959.959,0,0,0,1.595-.675,10.972,10.972,0,0,1,12.512-9.323c1.165.184,1.656-1.595.491-1.779a12.864,12.864,0,0,0-14.842,11.1c.552-.245,1.043-.429,1.595-.675a9.092,9.092,0,0,0-8.709-1.411c-3.435,1.165-5.029,3.435-6.317,6.624-.613,1.595-1.349,2.576-3.128,2.331-.981-.123-1.9-.368-2.883-.429A5.219,5.219,0,0,0,739,628.354a6.067,6.067,0,0,0-1.288,7.912.91.91,0,0,0,1.533-.981Z" transform="translate(-736.775 -609.405)" fill="#5222d0"/>
        </g>
      </g>
      <g id="Сгруппировать_38" data-name="Сгруппировать 38" transform="translate(327.327 25.83)">
        <g id="Сгруппировать_37" data-name="Сгруппировать 37">
          <path id="Контур_22" data-name="Контур 22" d="M789.875,95.528c-1.043-.981-.736-1.595.859-1.9.675-.92,1.411-1.1,2.208-.491,1.1.245,1.84,1.227,2.637,1.963a22.8,22.8,0,0,0,2.944,2.515,5.441,5.441,0,0,0,5.029.429c1.963-.981,2.024-2.944,2.7-4.784a6.212,6.212,0,0,1,11.04-1.227c.368.491,1.288.675,1.595,0,1.165-2.76,2.637-5.888,5.275-7.544s7.053-1.472,8.219,1.963c.368,1.1,2.147.613,1.779-.491-1.165-3.312-4.539-4.784-7.912-4.232-4.661.8-7.237,5.459-8.955,9.384h1.595c-2.147-3.067-5.827-4.723-9.507-3.373a7.894,7.894,0,0,0-3.864,3.067,10.631,10.631,0,0,0-1.1,2.392,7.912,7.912,0,0,1-.491,1.717,3.513,3.513,0,0,1-4.416,1.1c-3.005-1.656-5.949-6.931-10.12-4.784a3.408,3.408,0,0,0-.429,5.888.921.921,0,0,0,.92-1.595Z" transform="translate(-787.457 -81.615)" fill="#ec615b"/>
        </g>
      </g>
      <g id="Сгруппировать_40" data-name="Сгруппировать 40" transform="translate(367.27 29.625)">
        <g id="Сгруппировать_39" data-name="Сгруппировать 39">
          <path id="Контур_23" data-name="Контур 23" d="M854.434,97.43c-.429-6.133,7.421-4.109,10.549-2.576,1.595.8,3.557,2.269,5.275.92a3.636,3.636,0,0,0,1.043-1.656c.92-2.024,1.533-3.5,3.987-4.232,3.8-1.1,7.483,1.288,10.549,3.251.981.613,1.9-.981.92-1.595-3.251-2.024-6.931-4.293-10.917-3.619A7.825,7.825,0,0,0,872.22,89.4c-1.595,1.165-1.9,3.189-3.5,4.171-1.533.92-2.147,0-3.68-.736-.8-.368-1.595-.736-2.453-1.043a9.164,9.164,0,0,0-4.968-.429c-2.883.675-5.213,3.005-5.029,6.072.061,1.165,1.9,1.165,1.84,0Z" transform="translate(-852.583 -87.802)" fill="#ec615b"/>
        </g>
      </g>
      <g id="Сгруппировать_42" data-name="Сгруппировать 42" transform="translate(544.234 282.557)">
        <g id="Сгруппировать_41" data-name="Сгруппировать 41" transform="translate(0)">
          <path id="Контур_24" data-name="Контур 24" d="M1143.5,510.933c-4.048-8.893,11.285-12.818,12.328-3.5a6.627,6.627,0,0,1-4.539,7.3,7.118,7.118,0,0,1-8.341-4.907.923.923,0,0,0-1.779.491,8.97,8.97,0,0,0,10.61,6.195c4.477-1.165,6.685-6.133,5.643-10.427-1.1-4.539-5.827-6.747-10.181-5.581a8.16,8.16,0,0,0-5.336,11.469c.491.981,2.085,0,1.595-1.043Z" transform="translate(-1141.116 -500.199)" fill="#ec615b"/>
        </g>
      </g>
      <g id="Сгруппировать_44" data-name="Сгруппировать 44" transform="translate(552.711 290.142)">
        <g id="Сгруппировать_43" data-name="Сгруппировать 43">
          <path id="Контур_25" data-name="Контур 25" d="M1160.25,522.768c-3.312-.307-4.539-4.723-2.269-6.931a5.566,5.566,0,0,1,7.176-.184c2.085,1.656,4.109,6.5,1.779,8.832-3.067,3.067-6.808-1.9-8.28-4.109-.675-.981-2.269-.061-1.595.92,2.147,3.312,7.053,8.525,11.162,4.477,3.251-3.189.92-9.629-2.269-11.9-3.251-2.331-8.586-1.533-10.426,2.269a5.986,5.986,0,0,0,4.784,8.464c1.1.123,1.1-1.717-.061-1.84Z" transform="translate(-1154.937 -512.566)" fill="#ec615b"/>
        </g>
      </g>
      <g id="Сгруппировать_46" data-name="Сгруппировать 46" transform="translate(0 216.349)">
        <g id="Сгруппировать_45" data-name="Сгруппировать 45">
          <path id="Контур_26" data-name="Контур 26" d="M254.644,399.15c2.453-.123,3.741-1.779,5.459-3.312,4.048-3.619,8.709-.184,11.285,3.373,2.453,3.373,6.011,5.765,9.138,1.717,1.472-1.9,2.208-4.723,4.232-6.072,4.109-2.76,7.605,2.7,10.181,5.091,2.944,2.7,9.016,3.925,10.365-1.1a.923.923,0,0,0-1.779-.491c-.675,2.637-3.864,2.576-5.765,1.472a19.255,19.255,0,0,1-3.68-3.373c-1.717-1.84-3.619-3.619-6.195-4.109-4.232-.736-6.133,3.067-8.035,6.133a6.251,6.251,0,0,1-2.024,2.515c-2.208,1.165-3.8-1.165-4.968-2.7a13.921,13.921,0,0,0-5.52-4.968,7.835,7.835,0,0,0-6.317-.368c-2.331.981-3.8,4.293-6.44,4.416a.891.891,0,0,0,.061,1.779Z" transform="translate(-253.762 -392.249)" fill="#ec615b"/>
        </g>
      </g>
      <g id="Сгруппировать_48" data-name="Сгруппировать 48" transform="translate(43.533 208.463)">
        <g id="Сгруппировать_47" data-name="Сгруппировать 47">
          <path id="Контур_27" data-name="Контур 27" d="M324.961,381.543c2.576,3.067,7.176,7.176,11.224,3.8.981-.859,1.533-2.085,2.576-2.944a5.939,5.939,0,0,1,5.336-.859c3.864,1.043,6.133,4.723,8.157,7.851a.921.921,0,0,0,1.595,0c2.637-5.765,9.69-7.176,15.21-4.968,1.1.429,1.595-1.349.491-1.779-6.195-2.515-14.352-.675-17.3,5.765h1.595c-2.76-4.293-6.256-9.2-12.021-9.016a7.307,7.307,0,0,0-5.213,2.392c-1.595,1.84-2.944,3.312-5.581,2.515-2.024-.613-3.5-2.515-4.845-4.109-.675-.859-1.963.429-1.227,1.349Z" transform="translate(-324.741 -379.392)" fill="#ec615b"/>
        </g>
      </g>
      <g id="Сгруппировать_50" data-name="Сгруппировать 50" transform="translate(149.025 261.359)">
        <g id="Сгруппировать_49" data-name="Сгруппировать 49">
          <path id="Контур_28" data-name="Контур 28" d="M501.93,479.046c-.8-1.595-1.717-3.251-2.453-4.907-.8-1.717-.429-2.392.613-3.864,1.349-1.9,3.435-3.619,5.827-2.331a7.818,7.818,0,0,1,3.312,4.784c.859,3.005.123,7.3-3.373,8.28-2.883.8-6.624-.981-6.5-4.293a.921.921,0,0,0-1.84,0c-.123,4.109,3.987,6.685,7.789,6.256,4.661-.552,6.624-5.459,5.949-9.629-.675-4.048-4.416-9.2-9.077-7.3-2.269.92-3.987,3.312-5.029,5.459-.613,1.288-.491,1.349.123,2.637.981,1.963,1.963,3.925,2.944,5.827a.977.977,0,0,0,1.717-.92Z" transform="translate(-496.743 -465.636)" fill="#5222d0"/>
        </g>
      </g>
      <g id="Сгруппировать_52" data-name="Сгруппировать 52" transform="translate(155.073 271.873)">
        <g id="Сгруппировать_51" data-name="Сгруппировать 51">
          <path id="Контур_29" data-name="Контур 29" d="M512.55,497.7c-2.331-2.76-6.317-8.157-2.883-11.592,2.453-2.453,6.869-1.533,8.893.92,2.085,2.515,2.515,7.421-.736,9.261-2.76,1.595-6.747.061-7.237-3.128-.184-1.165-1.963-.675-1.779.491.736,4.171,5.827,6.133,9.507,4.477,4.477-2.085,4.661-8.28,2.024-11.9-2.515-3.5-8.034-4.723-11.469-1.84-4.968,4.109-.675,10.856,2.453,14.536.675.981,1.963-.307,1.227-1.227Z" transform="translate(-506.603 -482.78)" fill="#ec615b"/>
        </g>
      </g>
      <g id="Сгруппировать_54" data-name="Сгруппировать 54" transform="translate(521.836 142.579)">
        <g id="Сгруппировать_53" data-name="Сгруппировать 53">
          <path id="Контур_30" data-name="Контур 30" d="M1106.439,292.044c.061-5.4,7.482-3.8,10.672-3.435a12.53,12.53,0,0,0,7.728-1.411c2.7-1.411,4.907-3.619,7.544-5.152a11.805,11.805,0,0,1,5.827-1.963c2.147.061,3.5,1.349,5.4,2.147,4.416,1.779,7.237-2.331,10-5.029,5.459-5.336,13.248-3.128,19.626-.92,1.1.368,1.595-1.411.491-1.779-5.7-1.963-12.941-4.109-18.584-.859-2.7,1.533-4.293,4.355-6.747,6.133-3.5,2.515-6.44-1.472-10.12-1.533-7.912-.123-12.083,9.016-20.056,8.587-3.435-.184-6.747-1.472-10.058.061a5.579,5.579,0,0,0-3.557,5.091.921.921,0,0,0,1.84.061Z" transform="translate(-1104.598 -271.97)" fill="#5222d0"/>
        </g>
      </g>
      <g id="Сгруппировать_56" data-name="Сгруппировать 56" transform="translate(567.864 146.683)">
        <g id="Сгруппировать_55" data-name="Сгруппировать 55">
          <path id="Контур_31" data-name="Контур 31" d="M1181.334,292.546a16.637,16.637,0,0,1,17.909-6.379c2.883.859,5.581,3.189,8.771,3.005,2.637-.184,4.048-2.331,5.827-3.987,2.883-2.637,6.624-4.784,10.672-4.661a9.676,9.676,0,0,1,6.256,2.576,4.77,4.77,0,0,0,1.963,1.288,5.257,5.257,0,0,0,3.435-.736,39.716,39.716,0,0,1,5.888-2.147,33.741,33.741,0,0,1,12.635-.675c1.165.123,1.165-1.717,0-1.84a33.361,33.361,0,0,0-12.083.491,40.407,40.407,0,0,0-5.275,1.656,7.86,7.86,0,0,1-3.557.92c-1.656,0-1.533-.245-2.637-1.1-5.213-3.987-12.205-2.147-16.928,1.595-1.288.981-2.331,2.331-3.557,3.312-2.944,2.331-5.275.859-8.28-.491a17.556,17.556,0,0,0-8.1-1.595,18.45,18.45,0,0,0-14.413,7.851c-.8.981.8,1.9,1.472.92Z" transform="translate(-1179.644 -278.661)" fill="#5222d0"/>
        </g>
      </g>
    </g>
    <g id="girl-2" data-name="girl" transform="translate(401.136 110.071)">
      <g id="leg_right" transform="translate(165.134 254.612)">
        <path id="Контур_32" data-name="Контур 32" d="M944.59,969.835c1.165,7.36,2.331,14.781,3.435,22.141q-36.339,11.776-35.634,14.9c.613,2.576,19.994.675,58.143-5.52-2.208-11.653-4.355-23.306-6.563-34.959C957.47,967.5,951.03,968.669,944.59,969.835Z" transform="translate(-889.528 -723.095)"/>
        <path id="Контур_33" data-name="Контур 33" d="M878.387,570.007c-.429,8.341-1.043,20.24-1.595,34.653-.552,15.272-.859,23.245-.8,33.058,0,4.232.184,21.466,2.392,43.669,1.84,18.706,4.723,46.674,14.965,81.081a379.939,379.939,0,0,0,20.056,52.746,83.115,83.115,0,0,0,15.762.8,81.464,81.464,0,0,0,26.741-5.888c-1.84-6.011-4.416-14.536-7.115-24.778A624.455,624.455,0,0,1,930.7,673.6a651.684,651.684,0,0,1,.8-103.9Q905.005,569.792,878.387,570.007Z" transform="translate(-875.457 -569.7)" fill="#fff"/>
        <path id="Контур_34" data-name="Контур 34" d="M956.016,577.9c-1.165,4.416-2.7,10.794-4.355,18.522-4.293,20.424-8.709,49.556-8.28,98.806a846.277,846.277,0,0,0,10.242,122.787c3.067-.307,6.195-.675,9.445-1.165a179.077,179.077,0,0,0,18.89-3.925c-2.576-8.341-6.133-20.73-9.813-35.818a638.565,638.565,0,0,1-17.725-129.534A649.023,649.023,0,0,1,956.016,577.9Z" transform="translate(-901.506 -572.871)" fill="#606060" opacity="0.09"/>
        <g id="Сгруппировать_58" data-name="Сгруппировать 58" transform="translate(51.849 1.019)">
          <g id="Сгруппировать_57" data-name="Сгруппировать 57">
            <path id="Контур_35" data-name="Контур 35" d="M962.506,572.244A590.3,590.3,0,0,0,973.73,758.2q5.8,25.944,13.861,51.212c.368,1.1,2.147.613,1.779-.491a590.991,590.991,0,0,1-27.845-183.751c.123-17.664,1.1-35.389,2.821-52.991.123-1.1-1.717-1.1-1.84.061Z" transform="translate(-959.661 -571.362)" fill="#161616"/>
          </g>
        </g>
        <g id="Сгруппировать_60" data-name="Сгруппировать 60" transform="translate(0 56.019)">
          <g id="Сгруппировать_59" data-name="Сгруппировать 59">
            <path id="Контур_36" data-name="Контур 36" d="M875.538,661.934A414.5,414.5,0,0,0,896.146,810.6a392.541,392.541,0,0,0,15.394,39.314c.491,1.1,2.085.123,1.595-.92a412.345,412.345,0,0,1-35.511-145.051,417.242,417.242,0,0,1-.245-42.013c.061-1.227-1.779-1.165-1.84,0Z" transform="translate(-875.123 -661.037)" fill="#161616"/>
          </g>
        </g>
        <g id="Сгруппировать_62" data-name="Сгруппировать 62" transform="translate(36.903 238.955)">
          <g id="Сгруппировать_61" data-name="Сгруппировать 61">
            <path id="Контур_37" data-name="Контур 37" d="M935.542,965.8c2.085,2.331,6.869,1.779,9.691,1.84a82.232,82.232,0,0,0,12.88-.981c4.6-.675,9.2-1.656,13.738-2.76,2.269-.552,6.992-.675,8.157-3.189.491-1.043-1.1-2.024-1.595-.92-.552,1.288-3.619,1.533-4.784,1.779-1.717.429-3.373.8-5.091,1.227-3.251.736-6.44,1.411-9.691,1.9a80.859,80.859,0,0,1-10.12,1.043c-2.576.123-9.936.92-11.837-1.227-.859-.92-2.147.429-1.349,1.288Z" transform="translate(-935.292 -959.308)" fill="#161616"/>
          </g>
        </g>
      </g>
      <g id="leg_left" transform="translate(117.39 225.88)">
        <path id="Контур_38" data-name="Контур 38" d="M833.225,551.524a129.575,129.575,0,0,0-5.888,17.725c-2.147,8.28-2.7,13.248-3.925,20.485-2.269,13.37-3.8,15.64-7.115,30.3-3.5,15.7-5.091,27.784-6.317,37.413-.981,7.483-2.76,22.754-3.557,42.5-.368,8.525-.552,13.554-.368,20.485a227.66,227.66,0,0,0,5.52,45.263,221.551,221.551,0,0,0,16.13,46.428,51.316,51.316,0,0,0,12.205,4.355c6.5,1.411,14.842,3.251,22.816-.8,2.208-1.1,7.237-4.171,11.04-11.408a236.541,236.541,0,0,1-9.445-33.426c-7.115-34.714-4.539-62.191-2.76-79.487,3.312-32.69,10.917-57.223,23.981-99.542,4.416-14.229,8.341-25.76,11.04-33.426.92-6.072,3.067-24.288-6.685-31.893C875.605,515.215,842.3,531.959,833.225,551.524Z" transform="translate(-800.644 -522.852)" fill="#fff"/>
        <path id="Контур_39" data-name="Контур 39" d="M914.357,622.8a239.876,239.876,0,0,0-14.965,27.538c-6.747,14.6-16.682,40.234-22.018,91.324a567.858,567.858,0,0,0-.368,114.139c1.9.184,10,.859,16.928-4.723a22.152,22.152,0,0,0,6.317-8.28,238.725,238.725,0,0,1-9.813-35.45c-8.709-43.791-3.251-79,.8-103.529A362.873,362.873,0,0,1,914.357,622.8Z" transform="translate(-827.067 -561.5)" fill="#606060" opacity="0.08"/>
        <path id="Контур_40" data-name="Контур 40" d="M839.488,1000.743c2.085,7.483,4.171,15.026,6.256,22.509q-49.311,15-48.452,18.706.92,4.232,67.159-6.256c-1.165-12.021-2.331-23.981-3.435-36C853.778,1000.007,846.6,1000.375,839.488,1000.743Z" transform="translate(-797.278 -707.239)"/>
        <g id="Сгруппировать_64" data-name="Сгруппировать 64" transform="translate(4.671 28.785)">
          <g id="Сгруппировать_63" data-name="Сгруппировать 63">
            <path id="Контур_41" data-name="Контур 41" d="M832.129,570.408c-6.5,16.437-9.813,33.855-13.309,51.151-3.68,18.093-7.237,36.186-9.813,54.463-4.784,33.855-6.256,68.508.307,102.241A186.444,186.444,0,0,0,827.345,830.4c.552,1.043,2.147.123,1.595-.92-32.813-62.375-22.877-135.36-9.507-201.538,3.864-19.2,7.3-38.762,14.536-57.039.368-1.1-1.411-1.595-1.84-.491Z" transform="translate(-804.894 -569.785)" fill="#161616"/>
          </g>
        </g>
        <g id="Сгруппировать_66" data-name="Сгруппировать 66" transform="translate(57.882 60.534)">
          <g id="Сгруппировать_65" data-name="Сгруппировать 65">
            <path id="Контур_42" data-name="Контур 42" d="M920.263,622.194c-20.546,54.77-34.285,113.649-26.312,172.344a225.216,225.216,0,0,0,11.714,47.41c.429,1.1,2.208.613,1.779-.491-20.424-55.138-16.253-115.611-.92-171.485,4.416-16.008,9.69-31.77,15.517-47.349.429-1.1-1.349-1.533-1.779-.429Z" transform="translate(-891.653 -621.55)" fill="#161616"/>
          </g>
        </g>
        <g id="Сгруппировать_68" data-name="Сгруппировать 68" transform="translate(26.85 279.934)">
          <g id="Сгруппировать_67" data-name="Сгруппировать 67">
            <path id="Контур_43" data-name="Контур 43" d="M841.512,988.674a46.278,46.278,0,0,0,28.4,5.52c8.034-1.1,17.357-4.784,18.154-14.045.123-1.165-1.717-1.165-1.84,0-.859,9.629-12.512,12.205-20.424,12.573a43.646,43.646,0,0,1-23.306-5.643c-1.1-.552-2.024,1.043-.981,1.595Z" transform="translate(-841.055 -979.275)" fill="#161616"/>
          </g>
        </g>
      </g>
      <g id="torso" transform="translate(145.923 83.096)">
        <path id="Контур_44" data-name="Контур 44" d="M860.482,301.672a55.737,55.737,0,0,0-6.195,8.955c-7.544,13.248-8.034,26.25-8.157,37.658-.123,16.621-.245,24.962,1.533,43.055,1.656,16.928,2.085,41.215-3.864,72.188a64.028,64.028,0,0,0,23.306,10.856c29.317,6.869,53.6-10.242,58.2-13.554-5.827-34.162-9.016-61.516-10.856-80.713-1.165-12.144-5.459-29.807-13.984-65.2-2.576-10.794-5.213-21.1-13.186-24.042C876.245,286.707,862.69,299.525,860.482,301.672Z" transform="translate(-843.8 -290.049)" fill="#b175ff"/>
        <path id="Контур_45" data-name="Контур 45" d="M914.2,292.8c.981,3.987,2.392,10,3.8,17.418a402.554,402.554,0,0,1,6.011,45.57c1.779,22.2,3.8,63.847,4.416,117.7a71.961,71.961,0,0,0,14.536-6.011,74.865,74.865,0,0,0,9.2-6.011c-.429-4.723-1.227-11.9-2.515-20.546-1.656-10.856-3.312-18.4-4.109-22.141a234.05,234.05,0,0,1-4.416-44.282c-2.515-10.672-4.416-19.258-5.7-24.962-3.557-16.192-4.6-22.141-7.3-31.954-2.7-9.874-5.52-17.725-7.3-22.448C918.616,294.272,916.408,293.536,914.2,292.8Z" transform="translate(-871.022 -291.113)" fill="#606060" opacity="0.1"/>
      </g>
      <g id="backpack" transform="translate(160.076 94.842)">
        <path id="Контур_46" data-name="Контур 46" d="M870.627,315.1c.552,1.1,1.472,1.472,3.5,2.453,1.717.859,3.373,1.9,5.09,2.637,5.275,2.269,11.469,12.328,12.45,13.922,3.741,6.072,8.1,13.186,10.61,23.49.675,2.7,2.208,9.69.429,33.3-1.9,24.226-4.355,27.6-2.453,39.682,1.411,8.771,3.189,19.258,11.837,24.962,8.035,5.275,17.3,3.435,19.2,3.067,11.653-2.269,18.277-11.285,24.717-20.056A87.694,87.694,0,0,0,971.15,404.22c.736-3.619.613-14.229.429-35.389-.245-21.834-.613-29.378-6.317-35.757a26.663,26.663,0,0,0-11.837-7.36,7.129,7.129,0,0,0-.8-5.091c-2.085-3.189-7.053-3.128-10.243-3.067-13.677.368-23.858,9.568-24.349,10A40.287,40.287,0,0,0,906.2,349.2a59.893,59.893,0,0,0-6.746-17.173c-1.9-3.251-4.723-6.563-10.427-13.309-4.477-5.275-6.624-7.3-10-8.4-.736-.245-6.317-1.9-8.157.613A4.226,4.226,0,0,0,870.627,315.1Z" transform="translate(-868.158 -309.339)" fill="#fff"/>
        <path id="Контур_47" data-name="Контур 47" d="M870.187,314.793c.368-.675,4.477.859,4.906,1.043,6.072,2.331,11.469,7.176,18.4,18.4a129.606,129.606,0,0,1,11.837,24.533c2.7-2.76,4.968-5.029,6.747-6.747a97.068,97.068,0,0,1,17.173-12.45c1.043-.613,2.331-1.349,3.251-.8,1.9,1.043-.123,6.133.429,10.856.429,3.557,2.515,8.464,10.427,13.922a4.24,4.24,0,0,1-.613,3.5c-1.717,1.9-6.133.368-8.4-.429-3.68-1.288-10.794-4.661-19.2-14.536a129.846,129.846,0,0,0-2.637,13.309,138.2,138.2,0,0,0,.613,41.706,144.331,144.331,0,0,0,9.016,31.709,35.413,35.413,0,0,0,25.146,1.043,21.24,21.24,0,0,0-7.176,5.52c-2.883,3.5-2.944,6.133-5.336,9.384-1.595,2.208-4.477,4.968-9.813,6.931a23.338,23.338,0,0,1-6.931-1.84c-8.4-3.741-12.205-11.653-13.922-15.333-2.269-4.968-5.765-15.026-2.453-49.066,1.9-19.442,3.987-25.514.8-36.615a75.335,75.335,0,0,0-8.157-17.97,71.893,71.893,0,0,0-15.946-19.013C874.3,318.411,869.819,315.59,870.187,314.793Z" transform="translate(-868.147 -311.297)" fill="#606060" opacity="0.11"/>
        <path id="Контур_48" data-name="Контур 48" d="M978.3,333.7a27.254,27.254,0,0,0-3.619,6.44,24.014,24.014,0,0,0-1.717,10.426c.675,9.752,7.667,15.7,8.954,16.744.859.675,1.595,1.227,2.085,1.533a50.942,50.942,0,0,0-1.9,10.856c-.491,6.5-.981,13.8,2.821,15.946,2.453,1.349,6.133.429,8.157-1.533.491-.491,1.9-2.024,2.269-8.955.429-8.219-1.288-11.653,1.165-14.045a13.644,13.644,0,0,1,4.355-2.453,23.834,23.834,0,0,1,4.355-1.349c-.675,5.029-1.165,9.507-1.533,13.125-.429,4.477-.613,6.747.92,8.157a5.282,5.282,0,0,0,5.52.736c2.331-1.043,3.067-3.925,4.355-9.69,1.043-4.539,1.9-8.341,1.349-13.493a31.629,31.629,0,0,0-1.349-6.256,31.21,31.21,0,0,0-.92-4.355c-1.043-3.557-2.024-4.6-2.637-6.869-.92-3.251.123-4.845.368-8.525A26.154,26.154,0,0,0,1009.211,328a8.144,8.144,0,0,0-4.171,1.349,8.93,8.93,0,0,0-3.251,3.987,16.015,16.015,0,0,0-7.789.184,16.564,16.564,0,0,0-9.506,7.053c1.595-3.5.245-6.931-1.9-7.789C980.753,331.987,978.544,333.581,978.3,333.7Z" transform="translate(-907.875 -316.47)"/>
        <g id="Сгруппировать_70" data-name="Сгруппировать 70" transform="translate(75.646 32.105)">
          <g id="Сгруппировать_69" data-name="Сгруппировать 69">
            <path id="Контур_49" data-name="Контур 49" d="M991.922,365.689c.613-1.165,3.68-3.741,4.723-1.595.491,1.043,2.085.123,1.595-.92a3.317,3.317,0,0,0-3.8-1.533,5.916,5.916,0,0,0-4.109,3.128c-.552,1.043,1.043,1.963,1.595.92Z" transform="translate(-990.213 -361.547)" fill="#fff"/>
          </g>
        </g>
        <g id="Сгруппировать_72" data-name="Сгруппировать 72" transform="translate(93.638 26.585)">
          <g id="Сгруппировать_71" data-name="Сгруппировать 71">
            <path id="Контур_50" data-name="Контур 50" d="M1021.236,357.486a8,8,0,0,1,1.349-2.331c.613-.613,2.453-1.288,2.515.123.061,1.165,1.9,1.165,1.84,0a2.923,2.923,0,0,0-3.435-2.7c-2.024.368-3.067,2.208-3.864,3.925-.491,1.1,1.1,2.085,1.595.981Z" transform="translate(-1019.549 -352.547)" fill="#fff"/>
          </g>
        </g>
        <g id="Сгруппировать_74" data-name="Сгруппировать 74" transform="translate(94.046 36.152)">
          <g id="Сгруппировать_73" data-name="Сгруппировать 73">
            <path id="Контур_51" data-name="Контур 51" d="M1021.984,369.344v.184l-.307.307c-.307.184-.8,0-.736-.368,0,0,0-.184.061-.123l-.184.184h1.288l-.123-.123.061.061c-.061-.061,0-.061,0,.061.061.368-.123.613-.613.8-.184-.061-.307-.061-.491-.123-.245-.123-.184-.491-.123-.675.061-.061,0-.061-.061.061h0a.913.913,0,0,0-.307,1.288.967.967,0,0,0,1.288.307,1.954,1.954,0,0,0,.92-1.349,1.234,1.234,0,0,0-1.165-1.288,1.167,1.167,0,0,0-1.227,1.1,1.544,1.544,0,0,0,.552,1.227.946.946,0,0,0,1.288,0,1.55,1.55,0,0,0,.061-2.515,1.447,1.447,0,0,0-1.411-.061,1.428,1.428,0,0,0-.491,1.595.878.878,0,0,0,1.1.613,1.034,1.034,0,0,0,.613-1.165Z" transform="translate(-1020.213 -368.145)" fill="#fff"/>
          </g>
        </g>
        <g id="Сгруппировать_76" data-name="Сгруппировать 76" transform="translate(78.909 37.667)">
          <g id="Сгруппировать_75" data-name="Сгруппировать 75">
            <path id="Контур_52" data-name="Контур 52" d="M1002.628,372.2a4.047,4.047,0,0,1-5.336-1.165c-.675-.981-2.269-.061-1.595.92a6.062,6.062,0,0,0,7.912,1.84.938.938,0,0,0-.981-1.595Z" transform="translate(-995.534 -370.616)" fill="#fff"/>
          </g>
        </g>
        <g id="Сгруппировать_78" data-name="Сгруппировать 78" transform="translate(81.227 42.985)">
          <g id="Сгруппировать_77" data-name="Сгруппировать 77">
            <path id="Контур_53" data-name="Контур 53" d="M1002.74,379.54a12.047,12.047,0,0,0-3.312,3.925c-.552,1.043,1.043,1.963,1.595.92a10.658,10.658,0,0,1,3.067-3.557.946.946,0,0,0,0-1.288,1.025,1.025,0,0,0-1.349,0Z" transform="translate(-999.313 -379.287)" fill="#fff"/>
          </g>
        </g>
        <g id="Сгруппировать_80" data-name="Сгруппировать 80" transform="translate(98.05 30.595)">
          <g id="Сгруппировать_79" data-name="Сгруппировать 79">
            <path id="Контур_54" data-name="Контур 54" d="M1028.249,364.982a14.353,14.353,0,0,0,2.76-4.784c.368-1.1-1.411-1.595-1.779-.491a12.242,12.242,0,0,1-2.269,3.987c-.736.92.552,2.208,1.288,1.288Z" transform="translate(-1026.742 -359.085)" fill="#fff"/>
          </g>
        </g>
        <g id="Сгруппировать_82" data-name="Сгруппировать 82" transform="translate(98.51 36.725)">
          <g id="Сгруппировать_81" data-name="Сгруппировать 81">
            <path id="Контур_55" data-name="Контур 55" d="M1028.662,371.178c1.472-.307,3.189-.675,4.355.552.8.859,2.085-.429,1.288-1.288-1.656-1.779-4.048-1.472-6.194-.981-1.1.184-.613,1.963.552,1.717Z" transform="translate(-1027.491 -369.08)" fill="#fff"/>
          </g>
        </g>
        <g id="Сгруппировать_84" data-name="Сгруппировать 84">
          <g id="Сгруппировать_83" data-name="Сгруппировать 83">
            <path id="Контур_56" data-name="Контур 56" d="M868.608,313.555c2.821-4.416,9.507-1.779,12.88.429,4.048,2.576,7.115,6.44,9.874,10.3,5.581,7.789,10.549,16.253,12.389,25.76.245,1.165,2.024.675,1.779-.491-2.147-11.346-8.771-22.264-16.253-30.973-4.355-5.029-16.682-14.536-22.264-5.888-.613.92.981,1.9,1.595.859Z" transform="translate(-866.875 -309.201)" fill="#161616"/>
          </g>
        </g>
        <g id="Сгруппировать_86" data-name="Сгруппировать 86" transform="translate(5.077 6.792)">
          <g id="Сгруппировать_85" data-name="Сгруппировать 85">
            <path id="Контур_57" data-name="Контур 57" d="M875.611,322.008c14.72,8.28,23,23.8,27.17,39.621a.923.923,0,0,0,1.779-.491c-4.293-16.253-12.941-32.261-28.029-40.725a.921.921,0,0,0-.92,1.595Z" transform="translate(-875.152 -320.275)" fill="#161616"/>
          </g>
        </g>
        <g id="Сгруппировать_88" data-name="Сгруппировать 88" transform="translate(36.914 7.441)">
          <g id="Сгруппировать_87" data-name="Сгруппировать 87">
            <path id="Контур_58" data-name="Контур 58" d="M928.8,353.942c1.533-10.856,8.464-19.933,17.97-25.146a46.8,46.8,0,0,1,15.946-5.152c2.637-.368,5.7-.736,8.28.245,2.821,1.043,5.52,5.52,1.963,7.544-1.043.552-.123,2.147.92,1.595,3.925-2.208,2.944-7.851-.491-10-5.336-3.373-14.168-.981-19.626.859-13.493,4.355-24.656,15.272-26.68,29.685-.245,1.043,1.533,1.533,1.717.368Z" transform="translate(-927.062 -321.334)" fill="#161616"/>
          </g>
        </g>
        <g id="Сгруппировать_90" data-name="Сгруппировать 90" transform="translate(41.225 25.92)">
          <g id="Сгруппировать_89" data-name="Сгруппировать 89">
            <path id="Контур_59" data-name="Контур 59" d="M935.63,368.352a65.185,65.185,0,0,1,10.488-9.2,30.453,30.453,0,0,1,11.776-5.888c1.165-.245.675-2.024-.491-1.779a32.623,32.623,0,0,0-12.205,6.072,69.725,69.725,0,0,0-10.856,9.507c-.8.859.491,2.208,1.288,1.288Z" transform="translate(-934.091 -351.462)" fill="#161616"/>
          </g>
        </g>
        <g id="Сгруппировать_92" data-name="Сгруппировать 92" transform="translate(63.585 14.945)">
          <g id="Сгруппировать_91" data-name="Сгруппировать 91">
            <path id="Контур_60" data-name="Контур 60" d="M972.236,346.529a36.64,36.64,0,0,1,4.968-8.28,7.4,7.4,0,0,1,1.288-1.472c.429-.8.981-.859,1.779-.123.981,0,1.411.368,1.411,1.227.675,1.288.736,3.5.981,4.968.245,1.165,2.024.675,1.779-.491-.491-2.331-1.1-10.672-5.52-8.4-1.717.859-3.005,3.005-4.109,4.477a42.04,42.04,0,0,0-4.171,7.176c-.491,1.043,1.1,2.024,1.595.92Z" transform="translate(-970.549 -333.568)" fill="#161616"/>
          </g>
        </g>
        <g id="Сгруппировать_94" data-name="Сгруппировать 94" transform="translate(75.571 15.521)">
          <g id="Сгруппировать_93" data-name="Сгруппировать 93">
            <path id="Контур_61" data-name="Контур 61" d="M991.63,343.764c3.128-4.048,9.506-9.629,14.965-6.624,1.043.552,1.963-1.043.92-1.595-6.317-3.373-13.432,2.147-17.234,6.931-.675.92.613,2.208,1.349,1.288Z" transform="translate(-990.091 -334.507)" fill="#161616"/>
          </g>
        </g>
        <g id="Сгруппировать_96" data-name="Сгруппировать 96" transform="translate(92.157 10.672)">
          <g id="Сгруппировать_95" data-name="Сгруппировать 95">
            <path id="Контур_62" data-name="Контур 62" d="M1018.83,333.777c.859-1.349,4.845-6.195,6.562-4.907.92.675,1.1,3.067,1.349,4.171a29.477,29.477,0,0,1,.552,5.213c.061,1.165,1.9,1.165,1.84,0a32.133,32.133,0,0,0-.981-7.237c-.368-1.349-.675-3.925-2.269-4.355-1.472-.368-3.5,1.043-4.6,1.84a14.236,14.236,0,0,0-3.987,4.355c-.675.981.92,1.9,1.533.92Z" transform="translate(-1017.134 -326.602)" fill="#161616"/>
          </g>
        </g>
        <g id="Сгруппировать_98" data-name="Сгруппировать 98" transform="translate(44.872 38.265)">
          <g id="Сгруппировать_97" data-name="Сгруппировать 97">
            <path id="Контур_63" data-name="Контур 63" d="M940.321,373.13a119.024,119.024,0,0,0,13.493,11.346c4.723,3.373,9.323,5.765,15.272,5.459,1.165-.061,1.165-1.9,0-1.84-6.072.307-10.549-2.392-15.272-5.827a117.141,117.141,0,0,1-12.266-10.426c-.8-.8-2.085.491-1.227,1.288Z" transform="translate(-940.037 -371.591)" fill="#161616"/>
          </g>
        </g>
        <g id="Сгруппировать_100" data-name="Сгруппировать 100" transform="translate(30.553 44.977)">
          <g id="Сгруппировать_99" data-name="Сгруппировать 99">
            <path id="Контур_64" data-name="Контур 64" d="M918.9,383.679c6.685,29.685-10.733,62.13,3.68,90.526,2.7,5.336,6.808,10.181,12.45,12.573,5.52,2.331,11.9,2.147,17.6.307,12.634-4.048,20.792-15.762,27.047-26.8a87.743,87.743,0,0,0,9.261-22.141,59.963,59.963,0,0,0,1.779-11.9c.184-4.6-.429-9.2-.245-13.8.061-1.165-1.779-1.165-1.84,0-.245,7.483.736,14.6-.736,22.018a75.015,75.015,0,0,1-6.685,19.074c-5.581,11.285-13.125,23.981-24.717,29.93-6.011,3.067-13.432,4.232-19.872,1.84-6.317-2.331-10.488-7.912-13.186-13.861-5.765-12.941-5.091-27.661-3.557-41.4,1.717-15.578,4.416-31.341.92-46.919-.429-1.043-2.208-.613-1.9.552Z" transform="translate(-916.691 -382.535)" fill="#161616"/>
          </g>
        </g>
        <g id="Сгруппировать_102" data-name="Сгруппировать 102" transform="translate(53.361 107.095)">
          <g id="Сгруппировать_101" data-name="Сгруппировать 101">
            <path id="Контур_65" data-name="Контур 65" d="M960.577,484.236a54.393,54.393,0,0,0-6.685,19.381c-.184,1.165,1.595,1.656,1.779.491a53.134,53.134,0,0,1,6.5-18.952c.613-.981-.981-1.9-1.595-.92Z" transform="translate(-953.878 -483.816)" fill="#161616"/>
          </g>
        </g>
        <g id="Сгруппировать_104" data-name="Сгруппировать 104" transform="translate(60.351 104.497)">
          <g id="Сгруппировать_103" data-name="Сгруппировать 103">
            <path id="Контур_66" data-name="Контур 66" d="M966.149,483.272c9.077-.8,18.645-2.515,27.722-1.533,1.165.123,1.165-1.717,0-1.84-9.077-1.043-18.645.736-27.722,1.533-1.165.123-1.165,1.963,0,1.84Z" transform="translate(-965.275 -479.58)" fill="#161616"/>
          </g>
        </g>
        <g id="Сгруппировать_106" data-name="Сгруппировать 106" transform="translate(53.875 125.531)">
          <g id="Сгруппировать_105" data-name="Сгруппировать 105">
            <path id="Контур_67" data-name="Контур 67" d="M955.135,516.9c4.477,2.637,9.69,2.392,14.72,2.269,5.275-.184,10.549-.8,15.149-3.557,1.043-.613.061-2.208-.92-1.595-4.355,2.637-9.261,3.128-14.229,3.312-4.661.184-9.568.491-13.8-1.963-.981-.613-1.9.981-.92,1.533Z" transform="translate(-954.716 -513.875)" fill="#161616"/>
          </g>
        </g>
        <g id="Сгруппировать_108" data-name="Сгруппировать 108" transform="translate(82.686 105.56)">
          <g id="Сгруппировать_107" data-name="Сгруппировать 107">
            <path id="Контур_68" data-name="Контур 68" d="M1007.094,481.98a107.955,107.955,0,0,1-5.336,19.626c-.429,1.1,1.349,1.595,1.779.491a99.994,99.994,0,0,0,5.336-19.626c.184-1.165-1.595-1.656-1.779-.491Z" transform="translate(-1001.692 -481.314)" fill="#161616"/>
          </g>
        </g>
        <g id="Сгруппировать_110" data-name="Сгруппировать 110" transform="translate(59.476 109.278)">
          <g id="Сгруппировать_109" data-name="Сгруппировать 109">
            <path id="Контур_69" data-name="Контур 69" d="M963.942,488.8c3.005,6.624,11.531,8.28,18.093,8.341a.921.921,0,0,0,0-1.84c-5.888-.123-13.8-1.472-16.5-7.483-.491-1.043-2.085-.061-1.595.981Z" transform="translate(-963.849 -487.375)" fill="#161616"/>
          </g>
        </g>
        <g id="Сгруппировать_112" data-name="Сгруппировать 112" transform="translate(72.259 115.779)">
          <g id="Сгруппировать_111" data-name="Сгруппировать 111">
            <path id="Контур_70" data-name="Контур 70" d="M985.248,498.849c-.184,1.533-.368,3.067-.552,4.539-.123,1.165,1.717,1.165,1.84,0,.184-1.533.368-3.067.552-4.539.123-1.165-1.717-1.165-1.84,0Z" transform="translate(-984.69 -497.975)" fill="#161616"/>
          </g>
        </g>
        <g id="Сгруппировать_114" data-name="Сгруппировать 114" transform="translate(75.816 115.779)">
          <g id="Сгруппировать_113" data-name="Сгруппировать 113">
            <path id="Контур_71" data-name="Контур 71" d="M990.987,498.849c-.184,1.533-.368,3.067-.491,4.6-.123,1.165,1.717,1.165,1.84,0,.184-1.533.368-3.067.491-4.6.123-1.165-1.717-1.165-1.84,0Z" transform="translate(-990.49 -497.975)" fill="#161616"/>
          </g>
        </g>
        <g id="Сгруппировать_116" data-name="Сгруппировать 116" transform="translate(76.75 110.368)">
          <g id="Сгруппировать_115" data-name="Сгруппировать 115">
            <path id="Контур_72" data-name="Контур 72" d="M993.171,498.013a15.945,15.945,0,0,0,10.242-7.483.921.921,0,0,0-1.595-.92,14.365,14.365,0,0,1-9.139,6.624.923.923,0,0,0,.491,1.779Z" transform="translate(-992.014 -489.152)" fill="#161616"/>
          </g>
        </g>
        <g id="Сгруппировать_118" data-name="Сгруппировать 118" transform="translate(63.876 23.927)">
          <g id="Сгруппировать_117" data-name="Сгруппировать 117">
            <path id="Контур_73" data-name="Контур 73" d="M971.622,348.88c-1.84,10.856.184,23.8,11.285,28.765,1.043.491,2.024-1.1.92-1.595-10.365-4.661-12.144-16.621-10.427-26.68.184-1.165-1.595-1.656-1.779-.491Z" transform="translate(-971.022 -348.214)" fill="#161616"/>
          </g>
        </g>
        <g id="Сгруппировать_120" data-name="Сгруппировать 120" transform="translate(102.193 20.722)">
          <g id="Сгруппировать_119" data-name="Сгруппировать 119">
            <path id="Контур_74" data-name="Контур 74" d="M1033.5,343.915a99.235,99.235,0,0,0,.552,10.488c.491,3.741,3.864,7.912,2.085,11.653-.491,1.043,1.1,2.024,1.595.92,1.595-3.373.184-6.195-.981-9.507-1.533-4.232-1.165-9.138-1.349-13.616-.123-1.165-1.963-1.165-1.9.061Z" transform="translate(-1033.498 -342.987)" fill="#161616"/>
          </g>
        </g>
        <g id="Сгруппировать_122" data-name="Сгруппировать 122" transform="translate(80.443 51.054)">
          <g id="Сгруппировать_121" data-name="Сгруппировать 121">
            <path id="Контур_75" data-name="Контур 75" d="M998.381,393.459a4.338,4.338,0,0,1,6.379,3.005c.061.307.491.184.429-.123a4.829,4.829,0,0,0-7.053-3.312c-.245.184,0,.613.245.429Z" transform="translate(-998.034 -392.442)" fill="#fff"/>
          </g>
        </g>
        <g id="Сгруппировать_124" data-name="Сгруппировать 124" transform="translate(85.369 54.81)">
          <g id="Сгруппировать_123" data-name="Сгруппировать 123">
            <path id="Контур_76" data-name="Контур 76" d="M1006.149,398.955a4.416,4.416,0,0,1,.92,1.656c.123.307.552.184.429-.123a6.8,6.8,0,0,0-1.043-1.84c-.184-.245-.552.123-.307.307Z" transform="translate(-1006.067 -398.567)" fill="#fff"/>
          </g>
        </g>
        <g id="Сгруппировать_126" data-name="Сгруппировать 126" transform="translate(97.344 44.727)">
          <g id="Сгруппировать_125" data-name="Сгруппировать 125">
            <path id="Контур_77" data-name="Контур 77" d="M1026.026,388.3a8.375,8.375,0,0,1,4.477-5.765.222.222,0,1,0-.245-.368,8.471,8.471,0,0,0-4.661,6.011c-.061.307.368.429.429.123Z" transform="translate(-1025.59 -382.126)" fill="#fff"/>
          </g>
        </g>
      </g>
      <g id="head" transform="translate(125.512)">
        <path id="Контур_78" data-name="Контур 78" d="M835.545,178.864c-4.232,2.147-7.789,6.195-9.384,7.973-3.925,4.477-5.949,8.648-8.157,13.309a85.316,85.316,0,0,0-5.7,15.946c2.392.429,4.784.8,7.176,1.227a35.4,35.4,0,0,0,.8,9.813c.859,3.68,2.269,9.568,7.176,13.677,6.747,5.765,15.7,4.355,17.357,4.109a25.4,25.4,0,0,0,3.067,11.224c.613,1.043,1.227,2.024,1.84,2.883a38.8,38.8,0,0,0,13.677-7.176c13-10.488,14.781-26.128,15.333-30.666.8-6.992,2.331-20.178-6.317-31.1C863.39,178.8,846.278,173.467,835.545,178.864Z" transform="translate(-811.209 -163.141)" fill="#fff"/>
        <path id="Контур_79" data-name="Контур 79" d="M825.021,184.79a37.441,37.441,0,0,1,8.771-9.016c6.01-4.232,8.709-2.453,11.776-6.195,2.208-2.7,3.619-7.115,1.963-9.2-2.637-3.312-12.021.675-13.248,1.227-2.7,1.165-11.592,4.907-15.149,14.352-2.944,7.912-.981,16.56.368,16.744.368.061.613-.552,2.576-3.557C823,187.611,824.04,186.2,825.021,184.79Z" transform="translate(-813.258 -156.309)" fill="#ec615b"/>
        <path id="Контур_80" data-name="Контур 80" d="M851.186,164.583c-.491,1.595-1.227,4.784,1.227,11.04,4.354,11.224,14.536,21.282,19.626,19.442,1.1-.429,2.269-1.533,4.477-1.656a7.026,7.026,0,0,1,4.477,1.227c2.7,2.147,2.821,6.808,1.043,9.813-.307.552-1.963,3.067-4.477,3.251-2.208.184-2.944-1.533-4.723-1.656-4.355-.245-8.1,9.322-8.587,10.61a28.964,28.964,0,0,0-1.656,16.989,25.461,25.461,0,0,0,3.864,9.384c5.7,8.28,15.272,10.3,18.829,11.04,3.5.736,16.805,3.5,27.17-5.091a23.959,23.959,0,0,0,8.587-13.922c2.515-13.37-8.709-23.368-9.384-23.92a82.785,82.785,0,0,0-7.973-30.053c-3.68-7.667-7.115-14.72-14.9-20.056-10.243-6.931-25.146-8.893-32.935-2.883A15.042,15.042,0,0,0,851.186,164.583Z" transform="translate(-826.052 -154.564)" fill="#ec615b"/>
        <path id="Контур_81" data-name="Контур 81" d="M829.862,278.2a13.8,13.8,0,0,0-4.109,8.157c-.675,6.133,3.435,10.365,4.293,11.224,4.477,4.6,11.96,6.44,17.357,3.68.429-.184,5.152-2.7,5.336-6.317.061-1.595-.8-2.392-2.024-5.949-.8-2.331-1.288-4.232-1.656-5.52a17.318,17.318,0,0,1-7.973.8A18.548,18.548,0,0,1,829.862,278.2Z" transform="translate(-816.382 -202.371)" fill="#ec615b"/>
        <path id="Контур_82" data-name="Контур 82" d="M852.5,179.7a21.067,21.067,0,0,0,1.595,7.728,21.867,21.867,0,0,0,2.392,4.232c2.576,3.925,3.435,7.605,4.784,11.714,2.147,6.379,1.779,11.714,1.349,18.338a76.006,76.006,0,0,1-5.581,23.674,25.16,25.16,0,0,1,6.624,3.189c4.723,3.189,6.869,6.992,8.219,8.771,2.76,3.619,8.893,7.421,23.674,7.176-1.472-1.472-3.557-3.68-5.827-6.379-5.336-6.256-10-11.714-12.757-18.338-1.595-3.8-4.048-11.592-2.147-22.877a5.35,5.35,0,0,0,5.336-.245,5.059,5.059,0,0,0,2.147-5.336,5.231,5.231,0,0,0-6.379-3.189,33.08,33.08,0,0,0-3.189-6.133,35.145,35.145,0,0,0-6.133-6.931C863.479,192.4,858.94,187.8,852.5,179.7Z" transform="translate(-826.753 -164.284)" fill="#606060" opacity="0.12"/>
        <path id="Контур_83" data-name="Контур 83" d="M813.4,238.078c.061-.981,3.189-1.779,5.827-1.595,2.331.184,5.091,1.227,5.029,2.147-.061.859-2.637,1.533-4.539,1.595C816.773,240.347,813.4,239.059,813.4,238.078Z" transform="translate(-811.634 -186.23)" fill="#606060" opacity="0.14"/>
        <g id="Сгруппировать_128" data-name="Сгруппировать 128" transform="translate(0 28.544)">
          <g id="Сгруппировать_127" data-name="Сгруппировать 127">
            <path id="Контур_84" data-name="Контур 84" d="M819.892,201.593a248.3,248.3,0,0,0-9.323,23.429.878.878,0,0,0,.613,1.1,18.722,18.722,0,0,0,7.3,1.288.921.921,0,0,0,0-1.84,19.669,19.669,0,0,1-6.808-1.227c.184.368.429.736.613,1.1a218.8,218.8,0,0,1,9.138-23c.552-.981-1.043-1.963-1.533-.859Z" transform="translate(-810.521 -201.105)" fill="#161616"/>
          </g>
        </g>
        <g id="Сгруппировать_130" data-name="Сгруппировать 130" transform="translate(7.714 54.347)">
          <g id="Сгруппировать_129" data-name="Сгруппировать 129">
            <path id="Контур_85" data-name="Контур 85" d="M823.1,244.049c.491,7.912,1.227,16.682,7.115,22.632,5.643,5.765,13.8,5.275,21.221,4.416,1.165-.123,1.165-1.963,0-1.84-6.869.8-14.658,1.472-19.933-3.864-5.52-5.581-6.072-13.922-6.563-21.344-.061-1.165-1.9-1.165-1.84,0Z" transform="translate(-823.098 -243.175)" fill="#161616"/>
          </g>
        </g>
        <g id="Сгруппировать_132" data-name="Сгруппировать 132" transform="translate(32.419 81.296)">
          <g id="Сгруппировать_131" data-name="Сгруппировать 131">
            <path id="Контур_86" data-name="Контур 86" d="M863.392,288.271a40.881,40.881,0,0,0,4.355,12.205c.552,1.043,2.147.123,1.595-.92a40.271,40.271,0,0,1-4.171-11.776c-.184-1.165-1.963-.675-1.779.491Z" transform="translate(-863.378 -287.114)" fill="#161616"/>
          </g>
        </g>
        <g id="Сгруппировать_134" data-name="Сгруппировать 134" transform="translate(8.659 61.021)">
          <g id="Сгруппировать_133" data-name="Сгруппировать 133">
            <path id="Контур_87" data-name="Контур 87" d="M824.922,257.641a5.253,5.253,0,0,0,8.648-2.453c.368-1.165-1.411-1.595-1.779-.491a3.33,3.33,0,0,1-5.52,1.595c-.92-.736-2.208.552-1.349,1.349Z" transform="translate(-824.64 -254.057)" fill="#161616"/>
          </g>
        </g>
        <g id="Сгруппировать_136" data-name="Сгруппировать 136" transform="translate(13.962 60.276)">
          <g id="Сгруппировать_135" data-name="Сгруппировать 135">
            <path id="Контур_88" data-name="Контур 88" d="M833.908,254.656a4.352,4.352,0,0,1,2.331,1.533.911.911,0,1,0,1.288-1.288,5.936,5.936,0,0,0-3.128-2.024.925.925,0,0,0-.491,1.779Z" transform="translate(-833.285 -252.842)" fill="#161616"/>
          </g>
        </g>
        <g id="Сгруппировать_138" data-name="Сгруппировать 138" transform="translate(15.604 35.431)">
          <g id="Сгруппировать_137" data-name="Сгруппировать 137">
            <path id="Контур_89" data-name="Контур 89" d="M837.7,216.054c.491-2.576,3.68-2.085,5.4-1.165a6.955,6.955,0,0,1,3.128,3.619c.429,1.1,2.208.613,1.779-.491a8.528,8.528,0,0,0-5.827-5.459c-2.576-.675-5.643.123-6.195,3.005-.245,1.165,1.533,1.656,1.717.491Z" transform="translate(-835.962 -212.333)" fill="#161616"/>
          </g>
        </g>
        <g id="Сгруппировать_140" data-name="Сгруппировать 140" transform="translate(15.55 24.27)">
          <g id="Сгруппировать_139" data-name="Сгруппировать 139">
            <path id="Контур_90" data-name="Контур 90" d="M837.608,198.162c2.76-4.6,8.157-1.043,9.261,2.821a.923.923,0,0,0,1.779-.491c-.8-2.821-2.76-5.459-5.765-6.195a6.36,6.36,0,0,0-6.869,2.883.936.936,0,0,0,1.595.981Z" transform="translate(-835.875 -194.136)" fill="#161616"/>
          </g>
        </g>
        <g id="Сгруппировать_142" data-name="Сгруппировать 142" transform="translate(18.226 47.739)">
          <g id="Сгруппировать_141" data-name="Сгруппировать 141">
            <path id="Контур_91" data-name="Контур 91" d="M841.134,234.24a.921.921,0,0,0,0-1.84.921.921,0,0,0,0,1.84Z" transform="translate(-840.237 -232.4)" fill="#161616"/>
          </g>
        </g>
        <g id="Сгруппировать_144" data-name="Сгруппировать 144" transform="translate(21.699 44.979)">
          <g id="Сгруппировать_143" data-name="Сгруппировать 143">
            <path id="Контур_92" data-name="Контур 92" d="M846.82,229.74h.245a.92.92,0,1,0,0-1.84h-.245a.943.943,0,0,0-.92.92.9.9,0,0,0,.92.92Z" transform="translate(-845.9 -227.9)" fill="#161616"/>
          </g>
        </g>
        <g id="Сгруппировать_146" data-name="Сгруппировать 146" transform="translate(22.68 49.072)">
          <g id="Сгруппировать_145" data-name="Сгруппировать 145">
            <path id="Контур_93" data-name="Контур 93" d="M847.5,235.449v.184a.921.921,0,0,0,1.84,0v-.184a.921.921,0,0,0-1.84,0v.184a.921.921,0,0,0,1.84,0v-.184a.921.921,0,0,0-1.84,0Z" transform="translate(-847.5 -234.575)" fill="#161616"/>
          </g>
        </g>
        <g id="Сгруппировать_148" data-name="Сгруппировать 148" transform="translate(46.487 37.53)">
          <g id="Сгруппировать_147" data-name="Сгруппировать 147">
            <path id="Контур_94" data-name="Контур 94" d="M889.25,218.788c1.656-2.392,4.477-.859,5.459,1.1a10.092,10.092,0,0,1,.736,5.029c-.245,4.171-3.741,7.115-7.789,4.539-.981-.675-1.9.92-.92,1.595a6.626,6.626,0,0,0,7.851-.061c2.453-1.9,2.883-5.029,2.7-7.973-.184-2.821-1.288-5.949-4.232-6.992a4.577,4.577,0,0,0-5.4,1.84c-.613.92.981,1.84,1.595.92Z" transform="translate(-886.316 -215.755)" fill="#161616"/>
          </g>
        </g>
      </g>
      <g id="binocular" transform="translate(0 1.649)">
        <path id="Контур_95" data-name="Контур 95" d="M616.319,161.4c-1.288,0-2.576.061-3.8.061a48.45,48.45,0,0,0-3.925,10.426,49.629,49.629,0,0,0-1.1,17.664,40.481,40.481,0,0,0,.92,5.152h3.312l1.288,4.416c10.365-.061,18.89-.061,24.84,0,36.063.307,61.21,1.717,67.036,2.024,7.3.429,13.248.859,16.928,1.1.123-2.269.736-3.067,1.288-3.312.981-.429,1.84.613,3.128.368,1.349-.245,2.208-1.656,2.76-2.944a9.336,9.336,0,0,0,5.52.92,8.59,8.59,0,0,0,1.472-.368l3.128-6.256a19.458,19.458,0,0,0-6.072-.92,20.689,20.689,0,0,0-3.68.368c-.123-.307-1.1-3.067-3.68-3.68a4.474,4.474,0,0,0-2.024,0l-1.1-2.024c-1.472-.245-3.741-.613-6.44-1.1-21.9-3.987-37.167-8.832-48.82-12.328-11.162-3.373-27.416-7.973-48.268-13.064C618.159,159.065,617.239,160.231,616.319,161.4Z" transform="translate(-606.369 -157.503)" fill="#fff"/>
        <path id="Контур_96" data-name="Контур 96" d="M607.656,191.38c.552-.123,1.165,1.288,1.84,1.1,1.1-.245.859-4.109,1.1-6.992a27.469,27.469,0,0,1,3.68-11.592c1.779.736,4.477,1.9,7.728,3.312,11.714,5.091,19.81,9.016,22.264,10.12,16.192,7.544,33.978,10.917,38.455,11.776a177.482,177.482,0,0,0,41.215,2.944l-2.208,6.072c-2.821-.061-6.931-.061-11.96-.184-21.589-.429-36.677-1.1-45.325-1.472-12.205-.491-29.685-.981-51.764-.92l-.736-4.968-4.232.736C606.8,193.649,607.042,191.5,607.656,191.38Z" transform="translate(-606.354 -163.69)" fill="#606060" opacity="0.07"/>
        <g id="Сгруппировать_150" data-name="Сгруппировать 150" transform="translate(3.428)">
          <g id="Сгруппировать_149" data-name="Сгруппировать 149">
            <path id="Контур_97" data-name="Контур 97" d="M619.276,157.711a48.95,48.95,0,0,0-5.888,40.111.923.923,0,0,0,1.779-.491,47.088,47.088,0,0,1,5.7-38.7c.675-1.043-.92-1.963-1.595-.92Z" transform="translate(-611.466 -157.252)" fill="#161616"/>
          </g>
        </g>
        <g id="Сгруппировать_152" data-name="Сгруппировать 152" transform="translate(12.21 0.423)">
          <g id="Сгруппировать_151" data-name="Сгруппировать 151">
            <path id="Контур_98" data-name="Контур 98" d="M626.408,159.756q51.8,13.064,103.529,26.066a.923.923,0,0,0,.491-1.779q-51.8-13.064-103.529-26.066a.925.925,0,0,0-.491,1.779Z" transform="translate(-625.785 -157.942)" fill="#161616"/>
          </g>
        </g>
        <g id="Сгруппировать_154" data-name="Сгруппировать 154" transform="translate(5.764 40.693)">
          <g id="Сгруппировать_153" data-name="Сгруппировать 153">
            <path id="Контур_99" data-name="Контур 99" d="M616.149,225.5q54-.46,107.945,2.515c1.165.061,1.165-1.779,0-1.84q-53.911-2.944-107.945-2.515a.921.921,0,0,0,0,1.84Z" transform="translate(-615.275 -223.601)" fill="#161616"/>
          </g>
        </g>
        <g id="Сгруппировать_156" data-name="Сгруппировать 156" transform="translate(114.174 26.25)">
          <g id="Сгруппировать_155" data-name="Сгруппировать 155">
            <path id="Контур_100" data-name="Контур 100" d="M793.669,201.431a16.969,16.969,0,0,1-1.472,16.621c-.675.981.92,1.9,1.595.92a18.746,18.746,0,0,0,1.472-18.461c-.491-1.043-2.085-.123-1.595.92Z" transform="translate(-792.034 -200.052)" fill="#161616"/>
          </g>
        </g>
        <g id="Сгруппировать_158" data-name="Сгруппировать 158" transform="translate(116.782 28.227)">
          <g id="Сгруппировать_157" data-name="Сгруппировать 157">
            <path id="Контур_101" data-name="Контур 101" d="M797.153,205.069c.675.491,1.165.307,1.963.491,1.533.429,2.147,1.84,2.453,3.312.491,2.7-.184,8.4-4.171,6.808-1.1-.429-1.595,1.349-.491,1.779,4.048,1.595,6.685-2.637,6.685-6.195a10.63,10.63,0,0,0-1.349-5.827,4.059,4.059,0,0,0-1.472-1.411c-.8-.368-1.9-.123-2.576-.613a.98.98,0,0,0-1.043,1.656Z" transform="translate(-796.285 -203.275)" fill="#161616"/>
          </g>
        </g>
        <g id="Сгруппировать_160" data-name="Сгруппировать 160" transform="translate(122.172 31.47)">
          <g id="Сгруппировать_159" data-name="Сгруппировать 159">
            <path id="Контур_102" data-name="Контур 102" d="M805.949,210.487a47.27,47.27,0,0,1,9.323.307c1.165.123,1.165-1.717,0-1.84a52.67,52.67,0,0,0-9.323-.307c-1.165.123-1.165,1.963,0,1.84Z" transform="translate(-805.075 -208.562)" fill="#161616"/>
          </g>
        </g>
        <g id="Сгруппировать_162" data-name="Сгруппировать 162" transform="translate(122.135 38.348)">
          <g id="Сгруппировать_161" data-name="Сгруппировать 161">
            <path id="Контур_103" data-name="Контур 103" d="M805.68,221.57a28.344,28.344,0,0,0,7.544.368c1.165-.123,1.165-1.963,0-1.84a27.112,27.112,0,0,1-7.053-.307c-1.165-.184-1.656,1.533-.491,1.779Z" transform="translate(-805.014 -219.778)" fill="#161616"/>
          </g>
        </g>
        <g id="Сгруппировать_164" data-name="Сгруппировать 164" transform="translate(0 2.733)">
          <g id="Сгруппировать_163" data-name="Сгруппировать 163">
            <path id="Контур_104" data-name="Контур 104" d="M616.072,162.378c-5.949-3.435-7.605,7.3-8.4,10.672-1.84,7.789-2.7,15.824-.429,23.613a.984.984,0,0,0,.859.675h2.453a.921.921,0,0,0,0-1.84H608.1a10.494,10.494,0,0,1,.859.675,39.3,39.3,0,0,1-.675-17.112c.429-2.576.981-5.152,1.656-7.667.429-1.656,1.779-9.445,5.152-7.421a.936.936,0,0,0,.981-1.595Z" transform="translate(-605.877 -161.709)" fill="#161616"/>
          </g>
        </g>
      </g>
      <g id="hand" transform="translate(62.168 16.321)">
        <path id="Контур_105" data-name="Контур 105" d="M721.974,183.56a3.852,3.852,0,0,0-3.189-1.165c-2.024.123-3.987,1.963-6.133,6.44a45.166,45.166,0,0,0-4.355,18.4,75.247,75.247,0,0,0,4.661,26.864,132.725,132.725,0,0,0,2.944,19.258c3.128,13.984,6.44,28.7,17.848,41.767,4.293,4.968,12.757,14.6,27.477,18.093a48.382,48.382,0,0,0,30.973-3.189A47.134,47.134,0,0,0,808.821,296.9c3.864-4.845,8.341-10.12,7.605-16.621-.307-2.821-1.533-5.213-3.373-9.016s-2.821-5.7-4.784-6.44c-2.7-1.043-5.581.8-8.77,2.637-5.4,3.067-5.888,6.011-11.714,9.077a37.446,37.446,0,0,1-6.133,2.331c-4.845,1.595-9.629,3.189-14.045,3.5-9.629.675-17.357-4.845-19.565-6.44-8.157-5.827-11.346-13.616-13.432-18.706a55.391,55.391,0,0,1-3.5-28.029,12.075,12.075,0,0,0,5.52-2.331c3.251-2.515,4.048-6.011,5.275-11.408.8-3.373,1.165-5.152.307-5.827-1.779-1.349-7.237,3.067-8.464,4.109a53.083,53.083,0,0,1,1.472-9.936c.8-3.189,1.227-4.845,2.331-6.133,2.147-2.515,4.661-2.269,5.52-4.661a4,4,0,0,0-.613-4.109c-1.227-1.227-3.864-1.165-6.133.613a4.406,4.406,0,0,0-3.8-2.637,4.273,4.273,0,0,0-2.944,1.165,3.728,3.728,0,0,0-1.779-3.8c-1.656-.859-4.293.123-5.275,2.637A3.981,3.981,0,0,0,721.974,183.56Z" transform="translate(-707.647 -181.643)" fill="#fff"/>
        <path id="Контур_106" data-name="Контур 106" d="M718.718,182.4a44.054,44.054,0,0,0-4.539,11.346c-2.7,10.794-.491,19.81.491,24.165,10.549,44.957,5.949,46.061,13.309,56.61,2.7,3.8,21.221,29.317,48.82,25.944,23.122-2.821,35.389-23.858,36.983-26.68a23.426,23.426,0,0,1,1.288,11.592c-1.1,7.3-5.643,11.9-7.3,13.616a54.754,54.754,0,0,1-7.544,5.765,95.565,95.565,0,0,1-8.587,5.52c-7.3,4.109-18.584,5.091-26.434,4.048-21.344-2.821-34.162-23.061-39.5-31.463-12.205-19.2-13.432-38.639-13.309-48.33-1.165-3.925-2.331-7.912-3.5-11.837a88.759,88.759,0,0,1-.736-14.6c.307-8.771.552-15.333,5.029-20.914A20.776,20.776,0,0,1,718.718,182.4Z" transform="translate(-707.581 -181.649)" fill="#606060" opacity="0.12"/>
        <g id="Сгруппировать_166" data-name="Сгруппировать 166" transform="translate(22.49 50.967)">
          <g id="Сгруппировать_165" data-name="Сгруппировать 165">
            <path id="Контур_107" data-name="Контур 107" d="M815.6,335.5c9.691-4.6,16.192-14.229,14.6-25.146-.92-6.624-6.256-18.032-14.781-13.984-3.8,1.84-6.931,5.213-10.427,7.605a62.058,62.058,0,0,1-16.008,7.667c-7.115,2.269-15.026,2.76-21.9-.675a31.1,31.1,0,0,1-11.96-11.285,56.939,56.939,0,0,1-9.261-34.53c.061-1.165-1.779-1.165-1.84,0a57.115,57.115,0,0,0,6.133,29.317c3.987,8.219,9.813,15.946,18.645,19.258,10.733,3.987,22.448-.061,32.138-5.152a89.456,89.456,0,0,0,12.021-8.341c3.557-2.76,7.115-4.109,10.733-.429,4.477,4.539,5.827,12.45,4.477,18.461-1.656,7.176-6.992,12.573-13.493,15.64-1.043.491-.123,2.085.92,1.595Z" transform="translate(-743.909 -264.275)" fill="#161616"/>
          </g>
        </g>
        <g id="Сгруппировать_168" data-name="Сгруппировать 168" transform="translate(22.174 26.57)">
          <g id="Сгруппировать_167" data-name="Сгруппировать 167">
            <path id="Контур_108" data-name="Контур 108" d="M745.545,250.565c-.8-3.373,1.595-4.232,3.8-5.827a14.456,14.456,0,0,0,3.189-3.5,25.918,25.918,0,0,0,4.661-11.408c.245-2.024.675-5.213-2.085-5.336-3.251-.123-4.6,3.987-7.667,4.293-1.165.123-1.165,1.963,0,1.84,2.331-.245,3.5-1.717,5.275-3.067,1.043-.8,2.208-1.717,2.76.061.307.981-.184,2.821-.429,3.8a23.944,23.944,0,0,1-2.331,6.011,20.554,20.554,0,0,1-3.373,4.907c-1.288,1.349-3.067,1.656-4.477,2.76-1.9,1.472-1.595,3.987-1.1,6.011.307,1.1,2.085.613,1.779-.552Z" transform="translate(-743.395 -224.496)" fill="#161616"/>
          </g>
        </g>
        <g id="Сгруппировать_170" data-name="Сгруппировать 170">
          <g id="Сгруппировать_169" data-name="Сгруппировать 169">
            <path id="Контур_109" data-name="Контур 109" d="M710.16,224.123a78.2,78.2,0,0,1-.123-23.92,50.9,50.9,0,0,1,2.208-9.507,17.715,17.715,0,0,1,2.944-5.643c1.84-2.024,5.459-3.067,6.44.368a.923.923,0,0,0,1.779-.491,4.861,4.861,0,0,0-6.624-3.373c-3.741,1.533-5.52,6.133-6.685,9.629-3.435,10.61-3.435,22.509-1.779,33.426.245,1.165,2.024.675,1.84-.491Z" transform="translate(-707.24 -181.175)" fill="#161616"/>
          </g>
        </g>
        <g id="Сгруппировать_172" data-name="Сгруппировать 172" transform="translate(9.967 2.032)">
          <g id="Сгруппировать_171" data-name="Сгруппировать 171">
            <path id="Контур_110" data-name="Контур 110" d="M725.337,193.757c1.472-3.619,5.643-10.917,10.181-5.949.8.859,2.085-.429,1.288-1.288a6.007,6.007,0,0,0-7.728-1.1c-2.944,1.656-4.293,4.907-5.52,7.912-.429,1.043,1.349,1.533,1.779.429Z" transform="translate(-723.492 -184.488)" fill="#161616"/>
          </g>
        </g>
        <g id="Сгруппировать_174" data-name="Сгруппировать 174" transform="translate(17.699 4.511)">
          <g id="Сгруппировать_173" data-name="Сгруппировать 173">
            <path id="Контур_111" data-name="Контур 111" d="M737.939,196.852c.061-2.331.981-4.907,3.251-6.011a4.419,4.419,0,0,1,5.459,1.165c.736.92,2.024-.368,1.288-1.288a6.3,6.3,0,0,0-7.483-1.595c-2.944,1.411-4.293,4.6-4.355,7.728-.061,1.165,1.779,1.165,1.84,0Z" transform="translate(-736.097 -188.529)" fill="#161616"/>
          </g>
        </g>
        <g id="Сгруппировать_176" data-name="Сгруппировать 176" transform="translate(23.062 5.878)">
          <g id="Сгруппировать_175" data-name="Сгруппировать 175">
            <path id="Контур_112" data-name="Контур 112" d="M746.656,198.328c1.1-4.109,5.7-7.851,9.69-4.539.92.736,2.208-.552,1.288-1.288-5.091-4.171-11.224-.245-12.757,5.336a.923.923,0,0,0,1.779.491Z" transform="translate(-744.842 -190.758)" fill="#161616"/>
          </g>
        </g>
        <g id="Сгруппировать_178" data-name="Сгруппировать 178" transform="translate(25.177 7.219)">
          <g id="Сгруппировать_177" data-name="Сгруппировать 177">
            <path id="Контур_113" data-name="Контур 113" d="M757.312,194.328c1.963,2.76-2.392,4.477-3.925,5.765a8.473,8.473,0,0,0-2.576,3.925,54.376,54.376,0,0,0-2.515,13.248c-.123,1.165,1.717,1.165,1.84,0a65.166,65.166,0,0,1,1.595-9.69,29.666,29.666,0,0,1,.859-3.128c.8-2.147,1.963-2.944,3.741-4.232,2.208-1.595,4.539-4.171,2.576-6.931-.675-.859-2.269.061-1.595,1.043Z" transform="translate(-748.29 -192.945)" fill="#161616"/>
          </g>
        </g>
        <g id="Сгруппировать_180" data-name="Сгруппировать 180" transform="translate(0.627 39.951)">
          <g id="Сгруппировать_179" data-name="Сгруппировать 179">
            <path id="Контур_114" data-name="Контур 114" d="M708.285,247.471a98.214,98.214,0,0,0,3.741,12.328c.429,1.1,2.208.613,1.779-.491a98.214,98.214,0,0,1-3.741-12.328c-.245-1.165-2.024-.675-1.779.491Z" transform="translate(-708.262 -246.314)" fill="#161616"/>
          </g>
        </g>
        <g id="Сгруппировать_182" data-name="Сгруппировать 182" transform="translate(4.079 53.735)">
          <g id="Сгруппировать_181" data-name="Сгруппировать 181">
            <path id="Контур_115" data-name="Контур 115" d="M713.9,269.654c2.331,21.1,7.544,42.749,21.712,59.186,11.285,13.064,29.194,23,46.858,19.749a43.315,43.315,0,0,0,22.018-11.53c.859-.8-.429-2.147-1.288-1.288a40.125,40.125,0,0,1-44.834,7.789c-16.56-7.544-28.152-21.712-34.714-38.455-4.416-11.346-6.624-23.368-7.973-35.389-.061-1.227-1.9-1.227-1.779-.061Z" transform="translate(-713.891 -268.787)" fill="#161616"/>
          </g>
        </g>
      </g>
    </g>
  </g>
</svg>
